<svg width="304" height="49" viewBox="0 0 304 49" fill="none" xmlns="http://www.w3.org/2000/svg">
<g clip-path="url(#clip0_82_3930)">
<rect width="48" height="48" transform="translate(255.5 0.699219)" fill="black"/>
<path d="M299.947 0.699219H259.044C257.084 0.699219 255.5 2.24609 255.5 4.15859V45.2305C255.5 47.143 257.084 48.6992 259.044 48.6992H299.947C301.906 48.6992 303.5 47.143 303.5 45.2398V4.15859C303.5 2.24609 301.906 0.699219 299.947 0.699219ZM269.741 41.6023H262.616V18.6898H269.741V41.6023ZM266.178 15.568C263.891 15.568 262.044 13.7211 262.044 11.443C262.044 9.16484 263.891 7.31797 266.178 7.31797C268.456 7.31797 270.303 9.16484 270.303 11.443C270.303 13.7117 268.456 15.568 266.178 15.568ZM296.403 41.6023H289.287V30.4648C289.287 27.8117 289.241 24.3898 285.584 24.3898C281.881 24.3898 281.319 27.2867 281.319 30.2773V41.6023H274.213V18.6898H281.037V21.8211H281.131C282.078 20.0211 284.403 18.118 287.863 18.118C295.072 18.118 296.403 22.8617 296.403 29.0305V41.6023Z" fill="white"/>
</g>
<g clip-path="url(#clip1_82_3930)">
<rect width="48" height="48" transform="translate(170.5 0.699219)" fill="black"/>
<path d="M194.5 5.02109C200.913 5.02109 201.672 5.04922 204.194 5.16172C206.537 5.26484 207.803 5.65859 208.647 5.98672C209.763 6.41797 210.569 6.94297 211.403 7.77734C212.247 8.62109 212.763 9.41797 213.194 10.5336C213.522 11.3773 213.916 12.6523 214.019 14.9867C214.131 17.518 214.159 18.2773 214.159 24.6805C214.159 31.093 214.131 31.8523 214.019 34.3742C213.916 36.718 213.522 37.9836 213.194 38.8273C212.763 39.943 212.237 40.7492 211.403 41.5836C210.559 42.4273 209.763 42.943 208.647 43.3742C207.803 43.7023 206.528 44.0961 204.194 44.1992C201.663 44.3117 200.903 44.3398 194.5 44.3398C188.087 44.3398 187.328 44.3117 184.806 44.1992C182.463 44.0961 181.197 43.7023 180.353 43.3742C179.238 42.943 178.431 42.418 177.597 41.5836C176.753 40.7398 176.237 39.943 175.806 38.8273C175.478 37.9836 175.084 36.7086 174.981 34.3742C174.869 31.843 174.841 31.0836 174.841 24.6805C174.841 18.268 174.869 17.5086 174.981 14.9867C175.084 12.643 175.478 11.3773 175.806 10.5336C176.237 9.41797 176.762 8.61172 177.597 7.77734C178.441 6.93359 179.238 6.41797 180.353 5.98672C181.197 5.65859 182.472 5.26484 184.806 5.16172C187.328 5.04922 188.087 5.02109 194.5 5.02109ZM194.5 0.699219C187.984 0.699219 187.169 0.727344 184.609 0.839844C182.059 0.952344 180.306 1.36484 178.787 1.95547C177.203 2.57422 175.863 3.38984 174.531 4.73047C173.191 6.06172 172.375 7.40234 171.756 8.97734C171.166 10.5055 170.753 12.2492 170.641 14.7992C170.528 17.368 170.5 18.1836 170.5 24.6992C170.5 31.2148 170.528 32.0305 170.641 34.5898C170.753 37.1398 171.166 38.893 171.756 40.4117C172.375 41.9961 173.191 43.3367 174.531 44.668C175.863 45.9992 177.203 46.8242 178.778 47.4336C180.306 48.0242 182.05 48.4367 184.6 48.5492C187.159 48.6617 187.975 48.6898 194.491 48.6898C201.006 48.6898 201.822 48.6617 204.381 48.5492C206.931 48.4367 208.684 48.0242 210.203 47.4336C211.778 46.8242 213.119 45.9992 214.45 44.668C215.781 43.3367 216.606 41.9961 217.216 40.4211C217.806 38.893 218.219 37.1492 218.331 34.5992C218.444 32.0398 218.472 31.2242 218.472 24.7086C218.472 18.193 218.444 17.3773 218.331 14.818C218.219 12.268 217.806 10.5148 217.216 8.99609C216.625 7.40234 215.809 6.06172 214.469 4.73047C213.138 3.39922 211.797 2.57422 210.222 1.96484C208.694 1.37422 206.95 0.961719 204.4 0.849219C201.831 0.727344 201.016 0.699219 194.5 0.699219Z" fill="white"/>
<path d="M194.5 12.3711C187.694 12.3711 182.172 17.893 182.172 24.6992C182.172 31.5055 187.694 37.0273 194.5 37.0273C201.306 37.0273 206.828 31.5055 206.828 24.6992C206.828 17.893 201.306 12.3711 194.5 12.3711ZM194.5 32.6961C190.084 32.6961 186.503 29.1148 186.503 24.6992C186.503 20.2836 190.084 16.7023 194.5 16.7023C198.916 16.7023 202.497 20.2836 202.497 24.6992C202.497 29.1148 198.916 32.6961 194.5 32.6961Z" fill="white"/>
<path d="M210.194 11.884C210.194 13.4777 208.9 14.7621 207.316 14.7621C205.722 14.7621 204.438 13.4684 204.438 11.884C204.438 10.2902 205.731 9.00586 207.316 9.00586C208.9 9.00586 210.194 10.2996 210.194 11.884Z" fill="white"/>
</g>
<g clip-path="url(#clip2_82_3930)">
<rect width="48" height="48" transform="translate(85.5 0.699219)" fill="black"/>
<path d="M100.6 44.1987C118.709 44.1987 128.617 29.1921 128.617 16.1825C128.617 15.7606 128.607 15.3293 128.588 14.9075C130.516 13.5137 132.179 11.7872 133.5 9.80933C131.705 10.6079 129.799 11.1295 127.848 11.3562C129.903 10.1245 131.441 8.18967 132.178 5.91026C130.245 7.05585 128.131 7.86395 125.927 8.29995C124.442 6.72185 122.478 5.67696 120.339 5.32683C118.201 4.9767 116.006 5.34083 114.095 6.36292C112.185 7.38502 110.664 9.00814 109.768 10.9814C108.872 12.9546 108.651 15.168 109.139 17.2793C105.225 17.0829 101.396 16.0661 97.9 14.2949C94.4041 12.5237 91.3194 10.0376 88.8459 6.99776C87.5888 9.16522 87.2041 11.73 87.7701 14.1709C88.336 16.6118 89.8101 18.7456 91.8928 20.1387C90.3293 20.0891 88.8 19.6681 87.4313 18.9106V19.0325C87.4298 21.307 88.2162 23.5119 89.6566 25.2723C91.097 27.0326 93.1026 28.2399 95.3325 28.6887C93.8841 29.085 92.364 29.1427 90.8897 28.8575C91.5189 30.8136 92.7431 32.5245 94.3915 33.7514C96.0399 34.9783 98.0302 35.6599 100.085 35.7012C96.5968 38.441 92.2883 39.927 87.8531 39.92C87.0666 39.9188 86.2808 39.8705 85.5 39.7756C90.0057 42.6662 95.2471 44.2015 100.6 44.1987Z" fill="white"/>
</g>
<g clip-path="url(#clip3_82_3930)">
<rect width="48" height="48" transform="translate(0.5 0.699219)" fill="black"/>
<path d="M48.5 24.6992C48.5 11.4444 37.7548 0.699219 24.5 0.699219C11.2452 0.699219 0.5 11.4444 0.5 24.6992C0.5 36.6781 9.27641 46.6072 20.75 48.4077V31.6367H14.6562V24.6992H20.75V19.4117C20.75 13.3967 24.3331 10.0742 29.8152 10.0742C32.4402 10.0742 35.1875 10.543 35.1875 10.543V16.4492H32.1613C29.18 16.4492 28.25 18.2994 28.25 20.1992V24.6992H34.9062L33.8422 31.6367H28.25V48.4077C39.7236 46.6072 48.5 36.6781 48.5 24.6992Z" fill="white"/>
</g>
<defs>
<clipPath id="clip0_82_3930">
<rect width="48" height="48" fill="white" transform="translate(255.5 0.699219)"/>
</clipPath>
<clipPath id="clip1_82_3930">
<rect width="48" height="48" fill="white" transform="translate(170.5 0.699219)"/>
</clipPath>
<clipPath id="clip2_82_3930">
<rect width="48" height="48" fill="white" transform="translate(85.5 0.699219)"/>
</clipPath>
<clipPath id="clip3_82_3930">
<rect width="48" height="48" fill="white" transform="translate(0.5 0.699219)"/>
</clipPath>
</defs>
</svg>
