<svg width="204" height="52" viewBox="0 0 204 52" fill="none" xmlns="http://www.w3.org/2000/svg">
<g clip-path="url(#clip0_82_3930)">
<rect width="48" height="48" transform="translate(155.117 3.76367)" fill="black"/>
<path d="M199.564 3.76367H158.661C156.702 3.76367 155.117 5.31055 155.117 7.22305V48.2949C155.117 50.2074 156.702 51.7637 158.661 51.7637H199.564C201.523 51.7637 203.117 50.2074 203.117 48.3043V7.22305C203.117 5.31055 201.523 3.76367 199.564 3.76367ZM169.358 44.6668H162.233V21.7543H169.358V44.6668ZM165.795 18.6324C163.508 18.6324 161.661 16.7855 161.661 14.5074C161.661 12.2293 163.508 10.3824 165.795 10.3824C168.073 10.3824 169.92 12.2293 169.92 14.5074C169.92 16.7762 168.073 18.6324 165.795 18.6324ZM196.02 44.6668H188.905V33.5293C188.905 30.8762 188.858 27.4543 185.202 27.4543C181.498 27.4543 180.936 30.3512 180.936 33.3418V44.6668H173.83V21.7543H180.655V24.8855H180.748C181.695 23.0855 184.02 21.1824 187.48 21.1824C194.689 21.1824 196.02 25.9262 196.02 32.0949V44.6668V44.6668Z" fill="white"/>
</g>
<g clip-path="url(#clip1_82_3930)">
<rect width="48" height="48" transform="translate(109.352 0.460938)" fill="black"/>
<path d="M133.352 4.78281C139.764 4.78281 140.523 4.81094 143.045 4.92344C145.389 5.02656 146.655 5.42031 147.498 5.74844C148.614 6.17969 149.42 6.70469 150.255 7.53906C151.098 8.38281 151.614 9.17969 152.045 10.2953C152.373 11.1391 152.767 12.4141 152.87 14.7484C152.983 17.2797 153.011 18.0391 153.011 24.4422C153.011 30.8547 152.983 31.6141 152.87 34.1359C152.767 36.4797 152.373 37.7453 152.045 38.5891C151.614 39.7047 151.089 40.5109 150.255 41.3453C149.411 42.1891 148.614 42.7047 147.498 43.1359C146.655 43.4641 145.38 43.8578 143.045 43.9609C140.514 44.0734 139.755 44.1016 133.352 44.1016C126.939 44.1016 126.18 44.0734 123.658 43.9609C121.314 43.8578 120.048 43.4641 119.205 43.1359C118.089 42.7047 117.283 42.1797 116.448 41.3453C115.605 40.5016 115.089 39.7047 114.658 38.5891C114.33 37.7453 113.936 36.4703 113.833 34.1359C113.72 31.6047 113.692 30.8453 113.692 24.4422C113.692 18.0297 113.72 17.2703 113.833 14.7484C113.936 12.4047 114.33 11.1391 114.658 10.2953C115.089 9.17969 115.614 8.37344 116.448 7.53906C117.292 6.69531 118.089 6.17969 119.205 5.74844C120.048 5.42031 121.323 5.02656 123.658 4.92344C126.18 4.81094 126.939 4.78281 133.352 4.78281ZM133.352 0.460938C126.836 0.460938 126.02 0.489062 123.461 0.601562C120.911 0.714063 119.158 1.12656 117.639 1.71719C116.055 2.33594 114.714 3.15156 113.383 4.49219C112.042 5.82344 111.227 7.16406 110.608 8.73906C110.017 10.2672 109.605 12.0109 109.492 14.5609C109.38 17.1297 109.352 17.9453 109.352 24.4609C109.352 30.9766 109.38 31.7922 109.492 34.3516C109.605 36.9016 110.017 38.6547 110.608 40.1734C111.227 41.7578 112.042 43.0984 113.383 44.4297C114.714 45.7609 116.055 46.5859 117.63 47.1953C119.158 47.7859 120.902 48.1984 123.452 48.3109C126.011 48.4234 126.827 48.4516 133.342 48.4516C139.858 48.4516 140.673 48.4234 143.233 48.3109C145.783 48.1984 147.536 47.7859 149.055 47.1953C150.63 46.5859 151.97 45.7609 153.302 44.4297C154.633 43.0984 155.458 41.7578 156.067 40.1828C156.658 38.6547 157.07 36.9109 157.183 34.3609C157.295 31.8016 157.323 30.9859 157.323 24.4703C157.323 17.9547 157.295 17.1391 157.183 14.5797C157.07 12.0297 156.658 10.2766 156.067 8.75781C155.477 7.16406 154.661 5.82344 153.32 4.49219C151.989 3.16094 150.648 2.33594 149.073 1.72656C147.545 1.13594 145.802 0.723438 143.252 0.610938C140.683 0.489063 139.867 0.460938 133.352 0.460938Z" fill="white"/>
<path d="M133.352 12.1328C126.545 12.1328 121.023 17.6547 121.023 24.4609C121.023 31.2672 126.545 36.7891 133.352 36.7891C140.158 36.7891 145.68 31.2672 145.68 24.4609C145.68 17.6547 140.158 12.1328 133.352 12.1328ZM133.352 32.4578C128.936 32.4578 125.355 28.8766 125.355 24.4609C125.355 20.0453 128.936 16.4641 133.352 16.4641C137.767 16.4641 141.348 20.0453 141.348 24.4609C141.348 28.8766 137.767 32.4578 133.352 32.4578Z" fill="white"/>
<path d="M149.045 11.6457C149.045 13.2395 147.752 14.5238 146.167 14.5238C144.573 14.5238 143.289 13.2301 143.289 11.6457C143.289 10.052 144.583 8.76758 146.167 8.76758C147.752 8.76758 149.045 10.0613 149.045 11.6457Z" fill="white"/>
</g>
<g clip-path="url(#clip2_82_3930)">
<rect width="48" height="48" transform="translate(58.9453 0.427734)" fill="black"/>
<path d="M74.0456 43.9272C92.1544 43.9272 102.062 28.9207 102.062 15.911C102.062 15.4891 102.052 15.0578 102.034 14.636C103.961 13.2422 105.624 11.5158 106.945 9.53784C105.15 10.3364 103.245 10.858 101.293 11.0847C103.348 9.85306 104.886 7.91819 105.623 5.63878C103.69 6.78436 101.576 7.59247 99.3722 8.02847C97.887 6.45037 95.9233 5.40548 93.7847 5.05535C91.6461 4.70522 89.4517 5.06935 87.5408 6.09144C85.6299 7.11353 84.1089 8.73666 83.213 10.7099C82.3171 12.6831 82.0962 14.8965 82.5844 17.0078C78.6703 16.8114 74.8412 15.7947 71.3453 14.0234C67.8494 12.2522 64.7647 9.76612 62.2912 6.72628C61.0341 8.89373 60.6494 11.4585 61.2154 13.8994C61.7813 16.3403 63.2554 18.4741 65.3381 19.8672C63.7746 19.8176 62.2453 19.3966 60.8766 18.6391V18.761C60.8752 21.0355 61.6615 23.2404 63.1019 25.0008C64.5424 26.7612 66.548 27.9684 68.7778 28.4172C67.3294 28.8135 65.8093 28.8712 64.335 28.586C64.9642 30.5421 66.1885 32.253 67.8369 33.4799C69.4852 34.7068 71.4756 35.3884 73.53 35.4297C70.0422 38.1695 65.7337 39.6555 61.2984 39.6485C60.5119 39.6473 59.7261 39.5991 58.9453 39.5041C63.451 42.3947 68.6924 43.93 74.0456 43.9272Z" fill="white"/>
</g>
<g clip-path="url(#clip3_82_3930)">
<rect width="48" height="48" transform="translate(0.882812 1.40625)" fill="black"/>
<path d="M48.8828 25.4062C48.8828 12.1514 38.1377 1.40625 24.8828 1.40625C11.628 1.40625 0.882812 12.1514 0.882812 25.4062C0.882812 37.3852 9.65922 47.3142 21.1328 49.1147V32.3438H15.0391V25.4062H21.1328V20.1188C21.1328 14.1038 24.7159 10.7812 30.198 10.7812C32.823 10.7812 35.5703 11.25 35.5703 11.25V17.1562H32.5441C29.5628 17.1562 28.6328 19.0064 28.6328 20.9062V25.4062H35.2891L34.225 32.3438H28.6328V49.1147C40.1064 47.3142 48.8828 37.3852 48.8828 25.4062Z" fill="white"/>
</g>
<defs>
<clipPath id="clip0_82_3930">
<rect width="48" height="48" fill="white" transform="translate(155.117 3.76367)"/>
</clipPath>
<clipPath id="clip1_82_3930">
<rect width="48" height="48" fill="white" transform="translate(109.352 0.460938)"/>
</clipPath>
<clipPath id="clip2_82_3930">
<rect width="48" height="48" fill="white" transform="translate(58.9453 0.427734)"/>
</clipPath>
<clipPath id="clip3_82_3930">
<rect width="48" height="48" fill="white" transform="translate(0.882812 1.40625)"/>
</clipPath>
</defs>
</svg>
