<svg width="159" height="49" viewBox="0 0 159 49" fill="none" xmlns="http://www.w3.org/2000/svg">
<path d="M8.38037 40.1294H40.3804V8.12939H8.38037V40.1294ZM34.2212 21.0504H27.4594V14.2886H34.2212V21.0504ZM14.5383 14.2886H21.3039V27.2084H34.2212V33.9702H14.5383V14.2886ZM61.2184 8.12939C58.0538 8.12939 54.9604 9.06779 52.3293 10.8259C49.6981 12.584 47.6473 15.0828 46.4363 18.0065C45.2253 20.9301 44.9085 24.1471 45.5258 27.2508C46.1432 30.3545 47.667 33.2054 49.9046 35.443C52.1423 37.6808 54.9932 39.2046 58.0969 39.822C61.2007 40.4393 64.4177 40.1225 67.3413 38.9115C70.265 37.7005 72.7637 35.6498 74.5219 33.0185C76.28 30.3873 77.2184 27.2938 77.2184 24.1294C77.2134 19.8874 75.5261 15.8207 72.5266 12.8212C69.5271 9.82165 65.4604 8.13435 61.2184 8.12939ZM61.2184 33.9702C59.2721 33.9702 57.3694 33.393 55.7511 32.3116C54.1329 31.2304 52.8715 29.6935 52.1267 27.8953C51.3819 26.0972 51.187 24.1185 51.5666 22.2095C51.9464 20.3006 52.8837 18.5472 54.2599 17.1709C55.6362 15.7947 57.3896 14.8574 59.2985 14.4777C61.2074 14.098 63.1861 14.2929 64.9843 15.0377C66.7824 15.7825 68.3194 17.0438 69.4007 18.6622C70.4821 20.2804 71.0592 22.1831 71.0592 24.1294C71.0552 26.7382 70.0171 29.2389 68.1725 31.0835C66.3278 32.9282 63.8271 33.9662 61.2184 33.9702ZM134.474 8.12939C131.309 8.12916 128.216 9.06732 125.585 10.8253C122.953 12.5832 120.902 15.082 119.691 18.0056C118.48 20.9291 118.163 24.1464 118.78 27.25C119.397 30.3538 120.921 33.2049 123.159 35.4427C125.396 37.6804 128.247 39.2044 131.351 39.8219C134.454 40.4393 137.672 40.1225 140.596 38.9116C143.519 37.7006 146.018 35.6499 147.776 33.0186C149.535 30.3874 150.473 27.294 150.473 24.1294C150.468 19.8877 148.781 15.8211 145.782 12.8216C142.783 9.82213 138.716 8.13468 134.474 8.12939ZM134.474 33.9702C132.528 33.9704 130.625 33.3934 129.006 32.3123C127.388 31.2311 126.126 29.6943 125.381 27.8962C124.636 26.098 124.441 24.1193 124.821 22.2103C125.201 20.3014 126.138 18.5478 127.514 17.1714C128.89 15.795 130.644 14.8576 132.553 14.4778C134.462 14.098 136.44 14.2928 138.238 15.0376C140.037 15.7824 141.574 17.0437 142.656 18.6621C143.736 20.2804 144.314 22.1831 144.314 24.1294C144.31 26.7379 143.272 29.2384 141.427 31.083C139.583 32.9277 137.083 33.9659 134.474 33.9702ZM97.8456 8.12939C94.681 8.12939 91.5876 9.06779 88.9565 10.8259C86.3252 12.584 84.2745 15.0828 83.0635 18.0065C81.8525 20.9301 81.5357 24.1471 82.153 27.2508C82.7704 30.3545 84.2942 33.2054 86.5318 35.443C88.7695 37.6808 91.6204 39.2046 94.7241 39.822C97.8278 40.4393 101.045 40.1225 103.969 38.9115C106.892 37.7005 109.391 35.6498 111.149 33.0185C112.907 30.3873 113.846 27.2938 113.846 24.1294C113.841 19.8874 112.153 15.8207 109.154 12.8212C106.154 9.82165 102.088 8.13435 97.8456 8.12939ZM97.8456 33.9702C96.0322 33.971 94.2539 33.4709 92.7068 32.5249C91.1598 31.5788 89.9041 30.2239 89.0786 28.6093C88.2532 26.9947 87.8898 25.1833 88.0288 23.3754C88.1678 21.5673 88.8035 19.8328 89.8661 18.3633C90.9286 16.8938 92.3765 15.7465 94.0499 15.048C95.7234 14.3495 97.5573 14.127 99.3492 14.4049C101.141 14.6829 102.821 15.4506 104.205 16.6233C105.588 17.796 106.62 19.3281 107.187 21.0504H97.8456V27.2084H107.187C106.537 29.1737 105.285 30.8846 103.609 32.0982C101.932 33.3119 99.9156 33.9668 97.8456 33.9702Z" fill="#18870E"/>
</svg>