<svg width="159" height="49" viewBox="0 0 159 49" fill="none" xmlns="http://www.w3.org/2000/svg">
<path d="M8 40.918H40V8.91797H8V40.918ZM33.8408 21.839H27.079V15.0772H33.8408V21.839ZM14.158 15.0772H20.9235V27.9969H33.8408V34.7587H14.158V15.0772ZM60.838 8.91797C57.6735 8.91797 54.58 9.85636 51.9489 11.6145C49.3177 13.3726 47.2669 15.8714 46.0559 18.795C44.8449 21.7187 44.5282 24.9357 45.1455 28.0394C45.7629 31.143 47.2866 33.994 49.5243 36.2316C51.7619 38.4694 54.6128 39.9931 57.7165 40.6106C60.8203 41.2278 64.0373 40.9111 66.961 39.7001C69.8846 38.4891 72.3834 36.4383 74.1416 33.8071C75.8996 31.1759 76.838 28.0824 76.838 24.918C76.833 20.676 75.1457 16.6092 72.1462 13.6097C69.1467 10.6102 65.08 8.92292 60.838 8.91797ZM60.838 34.7587C58.8917 34.7587 56.9891 34.1816 55.3707 33.1002C53.7525 32.019 52.4911 30.4821 51.7463 28.6839C51.0015 26.8857 50.8066 24.9071 51.1863 22.9981C51.566 21.0892 52.5033 19.3357 53.8795 17.9595C55.2558 16.5832 57.0093 15.646 58.9182 15.2663C60.8271 14.8866 62.8057 15.0815 64.6039 15.8263C66.4021 16.5711 67.939 17.8324 69.0203 19.4508C70.1017 21.069 70.6788 22.9716 70.6788 24.918C70.6748 27.5267 69.6367 30.0275 67.7921 31.8721C65.9474 33.7168 63.4467 34.7547 60.838 34.7587ZM134.094 8.91797C130.929 8.91773 127.836 9.8559 125.204 11.6139C122.573 13.3718 120.522 15.8706 119.311 18.7942C118.1 21.7177 117.782 24.9349 118.4 28.0386C119.017 31.1424 120.541 33.9935 122.778 36.2312C125.016 38.469 127.867 39.993 130.971 40.6104C134.074 41.2278 137.291 40.9111 140.215 39.7002C143.139 38.4892 145.637 36.4385 147.395 33.8072C149.154 31.176 150.092 28.0825 150.092 24.918C150.087 20.6762 148.401 16.6096 145.402 13.6102C142.402 10.6107 138.335 8.92326 134.094 8.91797ZM134.094 34.7587C132.147 34.759 130.245 34.182 128.626 33.1008C127.008 32.0197 125.746 30.4828 125.001 28.6847C124.256 26.8866 124.061 24.9079 124.441 22.9988C124.82 21.0899 125.757 19.3364 127.134 17.9599C128.51 16.5835 130.264 15.6462 132.172 15.2664C134.081 14.8866 136.06 15.0814 137.858 15.8262C139.657 16.5709 141.194 17.8323 142.275 19.4506C143.356 21.069 143.933 22.9716 143.933 24.918C143.929 27.5265 142.891 30.027 141.046 31.8716C139.202 33.7163 136.702 34.7545 134.094 34.7587ZM97.4652 8.91797C94.3007 8.91797 91.2072 9.85636 88.5761 11.6145C85.9449 13.3726 83.8941 15.8714 82.6831 18.795C81.4721 21.7187 81.1554 24.9357 81.7727 28.0394C82.3901 31.143 83.9138 33.994 86.1515 36.2316C88.3891 38.4694 91.24 39.9931 94.3437 40.6106C97.4474 41.2278 100.664 40.9111 103.588 39.7001C106.512 38.4891 109.011 36.4383 110.769 33.8071C112.527 31.1759 113.465 28.0824 113.465 24.918C113.46 20.676 111.773 16.6092 108.773 13.6097C105.774 10.6102 101.707 8.92292 97.4652 8.91797ZM97.4652 34.7587C95.6518 34.7596 93.8735 34.2595 92.3264 33.3134C90.7794 32.3674 89.5238 31.0124 88.6982 29.3978C87.8729 27.7832 87.5094 25.9719 87.6484 24.1639C87.7874 22.3558 88.4231 20.6214 89.4857 19.1518C90.5482 17.6824 91.9962 16.5351 93.6695 15.8366C95.343 15.1381 97.1769 14.9155 98.9688 15.1935C100.761 15.4715 102.441 16.2392 103.824 17.4119C105.207 18.5846 106.24 20.1167 106.807 21.839H97.4652V27.9969H106.807C106.157 29.9622 104.905 31.6731 103.228 32.8868C101.552 34.1005 99.5352 34.7554 97.4652 34.7587Z" fill="#18870E"/>
</svg>
