<svg width="920" height="878" viewBox="0 0 920 878" fill="none" xmlns="http://www.w3.org/2000/svg">
<path fill-rule="evenodd" clip-rule="evenodd" d="M580.54 -223.17C715.563 -217.244 857.593 -170.895 940.035 -74.3968C1016.26 14.8262 965.043 141.518 986.817 252.378C1004.32 341.505 1069.65 420.565 1054.83 510.085C1038.41 609.263 986.047 703.907 901.282 768.913C812.504 836.997 694.92 894.203 580.54 873.817C469.68 854.059 435.146 724.478 340.429 668.953C236.796 608.201 56.1187 641.497 8.74836 538.621C-37.6569 437.841 114.211 349.313 144.618 243.702C178.299 126.715 108.296 -14.6158 194.659 -107.11C284.132 -202.936 441.695 -229.263 580.54 -223.17Z" fill="#61EB54"/>
</svg>
