<svg width="368" height="400" viewBox="0 0 368 400" fill="none" xmlns="http://www.w3.org/2000/svg">
<ellipse cx="83.5177" cy="151.397" rx="83.5177" ry="82.1134" fill="#111111"/>
<path d="M49.9172 127.3C50.1732 120.452 52.4132 115.172 56.6372 111.46C60.8612 107.748 66.5892 105.892 73.8212 105.892C78.6212 105.892 82.7172 106.724 86.1092 108.388C89.5652 110.052 92.1572 112.324 93.8852 115.204C95.6772 118.084 96.5732 121.316 96.5732 124.9C96.5732 129.124 95.5172 132.58 93.4052 135.268C91.2932 137.892 88.8292 139.684 86.0132 140.644V141.028C89.6612 142.244 92.5412 144.26 94.6532 147.076C96.7652 149.892 97.8212 153.508 97.8212 157.924C97.8212 161.892 96.8932 165.412 95.0372 168.484C93.2452 171.492 90.5892 173.86 87.0692 175.588C83.6132 177.316 79.4852 178.18 74.6852 178.18C67.0052 178.18 60.8612 176.292 56.2532 172.516C51.7092 168.74 49.3092 163.044 49.0532 155.428H64.9892C65.0532 158.244 65.8532 160.484 67.3892 162.148C68.9252 163.748 71.1652 164.548 74.1092 164.548C76.6052 164.548 78.5252 163.844 79.8692 162.436C81.2772 160.964 81.9812 159.044 81.9812 156.676C81.9812 153.604 80.9892 151.396 79.0052 150.052C77.0852 148.644 73.9812 147.94 69.6932 147.94H66.6212V134.596H69.6932C72.9572 134.596 75.5812 134.052 77.5652 132.964C79.6132 131.812 80.6372 129.796 80.6372 126.916C80.6372 124.612 79.9972 122.82 78.7172 121.54C77.4372 120.26 75.6772 119.62 73.4372 119.62C71.0052 119.62 69.1812 120.356 67.9652 121.828C66.8132 123.3 66.1412 125.124 65.9492 127.3H49.9172ZM99.6452 266.396H82.9412V283.484H67.3892V266.396H50.6852V251.708H67.3892V234.524H82.9412V251.708H99.6452V266.396Z" fill="#F2C203"/>
<ellipse cx="83.5177" cy="151.397" rx="83.5177" ry="82.1134" fill="#111111"/>
<path d="M37.264 108.241C37.4347 103.676 38.928 100.156 41.744 97.6813C44.56 95.2067 48.3787 93.9693 53.2 93.9693C56.4 93.9693 59.1307 94.524 61.392 95.6333C63.696 96.7427 65.424 98.2573 66.576 100.177C67.7707 102.097 68.368 104.252 68.368 106.641C68.368 109.457 67.664 111.761 66.256 113.553C64.848 115.303 63.2053 116.497 61.328 117.137V117.393C63.76 118.204 65.68 119.548 67.088 121.425C68.496 123.303 69.2 125.713 69.2 128.657C69.2 131.303 68.5813 133.649 67.344 135.697C66.1493 137.703 64.3787 139.281 62.032 140.433C59.728 141.585 56.976 142.161 53.776 142.161C48.656 142.161 44.56 140.903 41.488 138.385C38.4587 135.868 36.8587 132.071 36.688 126.993H47.312C47.3547 128.871 47.888 130.364 48.912 131.473C49.936 132.54 51.4293 133.073 53.392 133.073C55.056 133.073 56.336 132.604 57.232 131.665C58.1707 130.684 58.64 129.404 58.64 127.825C58.64 125.777 57.9787 124.305 56.656 123.409C55.376 122.471 53.3067 122.001 50.448 122.001H48.4V113.105H50.448C52.624 113.105 54.3733 112.743 55.696 112.017C57.0613 111.249 57.744 109.905 57.744 107.985C57.744 106.449 57.3173 105.255 56.464 104.401C55.6107 103.548 54.4373 103.121 52.944 103.121C51.3227 103.121 50.1067 103.612 49.296 104.593C48.528 105.575 48.08 106.791 47.952 108.241H37.264ZM108.526 124.305H97.39V135.697H87.022V124.305H75.886V114.513H87.022V103.057H97.39V114.513H108.526V124.305Z" fill="#F2C203"/>
<path d="M34.9902 166.19C34.4436 166.19 33.9369 166.056 33.4702 165.79C33.0169 165.523 32.6569 165.163 32.3902 164.71C32.1236 164.243 31.9902 163.736 31.9902 163.19C31.9902 162.63 32.1236 162.123 32.3902 161.67C32.6569 161.203 33.0169 160.836 33.4702 160.57C33.9369 160.303 34.4436 160.17 34.9902 160.17C35.5502 160.17 36.0569 160.303 36.5102 160.57C36.9769 160.836 37.3436 161.203 37.6102 161.67C37.8769 162.123 38.0102 162.63 38.0102 163.19C38.0102 163.736 37.8769 164.243 37.6102 164.71C37.3436 165.163 36.9769 165.523 36.5102 165.79C36.0569 166.056 35.5502 166.19 34.9902 166.19ZM50.56 164.25C50.56 163.103 50.7733 162.096 51.2 161.23C51.64 160.363 52.2333 159.696 52.98 159.23C53.7267 158.763 54.56 158.53 55.48 158.53C56.2667 158.53 56.9533 158.69 57.54 159.01C58.14 159.33 58.6 159.75 58.92 160.27V158.69H62.34V169.85H58.92V168.27C58.5867 168.79 58.12 169.21 57.52 169.53C56.9333 169.85 56.2467 170.01 55.46 170.01C54.5533 170.01 53.7267 169.776 52.98 169.31C52.2333 168.83 51.64 168.156 51.2 167.29C50.7733 166.41 50.56 165.396 50.56 164.25ZM58.92 164.27C58.92 163.416 58.68 162.743 58.2 162.25C57.7333 161.756 57.16 161.51 56.48 161.51C55.8 161.51 55.22 161.756 54.74 162.25C54.2733 162.73 54.04 163.396 54.04 164.25C54.04 165.103 54.2733 165.783 54.74 166.29C55.22 166.783 55.8 167.03 56.48 167.03C57.16 167.03 57.7333 166.783 58.2 166.29C58.68 165.796 58.92 165.123 58.92 164.27ZM71.4142 158.57C72.7209 158.57 73.7609 158.996 74.5342 159.85C75.3209 160.69 75.7142 161.85 75.7142 163.33V169.85H72.3142V163.79C72.3142 163.043 72.1209 162.463 71.7342 162.05C71.3476 161.636 70.8276 161.43 70.1742 161.43C69.5209 161.43 69.0009 161.636 68.6142 162.05C68.2276 162.463 68.0342 163.043 68.0342 163.79V169.85H64.6142V158.69H68.0342V160.17C68.3809 159.676 68.8476 159.29 69.4342 159.01C70.0209 158.716 70.6809 158.57 71.4142 158.57ZM82.4308 170.01C81.4574 170.01 80.5908 169.843 79.8308 169.51C79.0708 169.176 78.4708 168.723 78.0308 168.15C77.5908 167.563 77.3441 166.91 77.2908 166.19H80.6708C80.7108 166.576 80.8908 166.89 81.2108 167.13C81.5308 167.37 81.9241 167.49 82.3908 167.49C82.8174 167.49 83.1441 167.41 83.3708 167.25C83.6108 167.076 83.7308 166.856 83.7308 166.59C83.7308 166.27 83.5641 166.036 83.2308 165.89C82.8974 165.73 82.3574 165.556 81.6108 165.37C80.8108 165.183 80.1441 164.99 79.6108 164.79C79.0774 164.576 78.6174 164.25 78.2308 163.81C77.8441 163.356 77.6508 162.75 77.6508 161.99C77.6508 161.35 77.8241 160.77 78.1708 160.25C78.5308 159.716 79.0508 159.296 79.7308 158.99C80.4241 158.683 81.2441 158.53 82.1908 158.53C83.5908 158.53 84.6908 158.876 85.4908 159.57C86.3041 160.263 86.7708 161.183 86.8908 162.33H83.7308C83.6774 161.943 83.5041 161.636 83.2108 161.41C82.9308 161.183 82.5574 161.07 82.0908 161.07C81.6908 161.07 81.3841 161.15 81.1708 161.31C80.9574 161.456 80.8508 161.663 80.8508 161.93C80.8508 162.25 81.0174 162.49 81.3508 162.65C81.6974 162.81 82.2308 162.97 82.9508 163.13C83.7774 163.343 84.4508 163.556 84.9708 163.77C85.4908 163.97 85.9441 164.303 86.3308 164.77C86.7308 165.223 86.9374 165.836 86.9508 166.61C86.9508 167.263 86.7641 167.85 86.3908 168.37C86.0308 168.876 85.5041 169.276 84.8108 169.57C84.1308 169.863 83.3374 170.01 82.4308 170.01ZM36.7748 182.55V185.39H41.3548V188.03H36.7748V191.11H41.9548V193.85H33.3548V179.81H41.9548V182.55H36.7748ZM50.5752 193.85L48.4352 190.75L46.6352 193.85H42.9352L46.6152 188.15L42.8352 182.69H46.6752L48.8152 185.77L50.6152 182.69H54.3152L50.5752 188.31L54.4152 193.85H50.5752ZM58.953 184.27C59.2863 183.75 59.7463 183.33 60.333 183.01C60.9196 182.69 61.6063 182.53 62.393 182.53C63.313 182.53 64.1463 182.763 64.893 183.23C65.6396 183.696 66.2263 184.363 66.653 185.23C67.093 186.096 67.313 187.103 67.313 188.25C67.313 189.396 67.093 190.41 66.653 191.29C66.2263 192.156 65.6396 192.83 64.893 193.31C64.1463 193.776 63.313 194.01 62.393 194.01C61.6196 194.01 60.933 193.85 60.333 193.53C59.7463 193.21 59.2863 192.796 58.953 192.29V199.17H55.533V182.69H58.953V184.27ZM63.833 188.25C63.833 187.396 63.593 186.73 63.113 186.25C62.6463 185.756 62.0663 185.51 61.373 185.51C60.693 185.51 60.113 185.756 59.633 186.25C59.1663 186.743 58.933 187.416 58.933 188.27C58.933 189.123 59.1663 189.796 59.633 190.29C60.113 190.783 60.693 191.03 61.373 191.03C62.053 191.03 62.633 190.783 63.113 190.29C63.593 189.783 63.833 189.103 63.833 188.25ZM79.4272 188.09C79.4272 188.41 79.4072 188.743 79.3672 189.09H71.6272C71.6805 189.783 71.9005 190.316 72.2872 190.69C72.6872 191.05 73.1739 191.23 73.7472 191.23C74.6005 191.23 75.1939 190.87 75.5272 190.15H79.1672C78.9805 190.883 78.6405 191.543 78.1472 192.13C77.6672 192.716 77.0605 193.176 76.3272 193.51C75.5939 193.843 74.7739 194.01 73.8672 194.01C72.7739 194.01 71.8005 193.776 70.9472 193.31C70.0939 192.843 69.4272 192.176 68.9472 191.31C68.4672 190.443 68.2272 189.43 68.2272 188.27C68.2272 187.11 68.4605 186.096 68.9272 185.23C69.4072 184.363 70.0739 183.696 70.9272 183.23C71.7805 182.763 72.7605 182.53 73.8672 182.53C74.9472 182.53 75.9072 182.756 76.7472 183.21C77.5872 183.663 78.2405 184.31 78.7072 185.15C79.1872 185.99 79.4272 186.97 79.4272 188.09ZM75.9272 187.19C75.9272 186.603 75.7272 186.136 75.3272 185.79C74.9272 185.443 74.4272 185.27 73.8272 185.27C73.2539 185.27 72.7672 185.436 72.3672 185.77C71.9805 186.103 71.7405 186.576 71.6472 187.19H75.9272ZM76.1672 179.83L71.3472 181.85V179.49L76.1672 177.17V179.83ZM84.4514 184.55C84.8514 183.936 85.3514 183.456 85.9514 183.11C86.5514 182.75 87.2181 182.57 87.9514 182.57V186.19H87.0114C86.1581 186.19 85.5181 186.376 85.0914 186.75C84.6647 187.11 84.4514 187.75 84.4514 188.67V193.85H81.0314V182.69H84.4514V184.55ZM91.1061 181.53C90.5061 181.53 90.0128 181.356 89.6261 181.01C89.2528 180.65 89.0661 180.21 89.0661 179.69C89.0661 179.156 89.2528 178.716 89.6261 178.37C90.0128 178.01 90.5061 177.83 91.1061 177.83C91.6928 177.83 92.1728 178.01 92.5461 178.37C92.9328 178.716 93.1261 179.156 93.1261 179.69C93.1261 180.21 92.9328 180.65 92.5461 181.01C92.1728 181.356 91.6928 181.53 91.1061 181.53ZM92.8061 182.69V193.85H89.3861V182.69H92.8061ZM105.605 188.09C105.605 188.41 105.585 188.743 105.545 189.09H97.8045C97.8579 189.783 98.0779 190.316 98.4645 190.69C98.8645 191.05 99.3512 191.23 99.9245 191.23C100.778 191.23 101.371 190.87 101.705 190.15H105.345C105.158 190.883 104.818 191.543 104.325 192.13C103.845 192.716 103.238 193.176 102.505 193.51C101.771 193.843 100.951 194.01 100.045 194.01C98.9512 194.01 97.9779 193.776 97.1245 193.31C96.2712 192.843 95.6045 192.176 95.1245 191.31C94.6445 190.443 94.4045 189.43 94.4045 188.27C94.4045 187.11 94.6379 186.096 95.1045 185.23C95.5845 184.363 96.2512 183.696 97.1045 183.23C97.9579 182.763 98.9379 182.53 100.045 182.53C101.125 182.53 102.085 182.756 102.925 183.21C103.765 183.663 104.418 184.31 104.885 185.15C105.365 185.99 105.605 186.97 105.605 188.09ZM102.105 187.19C102.105 186.603 101.905 186.136 101.505 185.79C101.105 185.443 100.605 185.27 100.005 185.27C99.4312 185.27 98.9445 185.436 98.5445 185.77C98.1579 186.103 97.9179 186.576 97.8245 187.19H102.105ZM114.009 182.57C115.315 182.57 116.355 182.996 117.129 183.85C117.915 184.69 118.309 185.85 118.309 187.33V193.85H114.909V187.79C114.909 187.043 114.715 186.463 114.329 186.05C113.942 185.636 113.422 185.43 112.769 185.43C112.115 185.43 111.595 185.636 111.209 186.05C110.822 186.463 110.629 187.043 110.629 187.79V193.85H107.209V182.69H110.629V184.17C110.975 183.676 111.442 183.29 112.029 183.01C112.615 182.716 113.275 182.57 114.009 182.57ZM119.805 188.27C119.805 187.11 120.039 186.096 120.505 185.23C120.985 184.363 121.645 183.696 122.485 183.23C123.339 182.763 124.312 182.53 125.405 182.53C126.805 182.53 127.972 182.896 128.905 183.63C129.852 184.363 130.472 185.396 130.765 186.73H127.125C126.819 185.876 126.225 185.45 125.345 185.45C124.719 185.45 124.219 185.696 123.845 186.19C123.472 186.67 123.285 187.363 123.285 188.27C123.285 189.176 123.472 189.876 123.845 190.37C124.219 190.85 124.719 191.09 125.345 191.09C126.225 191.09 126.819 190.663 127.125 189.81H130.765C130.472 191.116 129.852 192.143 128.905 192.89C127.959 193.636 126.792 194.01 125.405 194.01C124.312 194.01 123.339 193.776 122.485 193.31C121.645 192.843 120.985 192.176 120.505 191.31C120.039 190.443 119.805 189.43 119.805 188.27ZM142.915 188.09C142.915 188.41 142.895 188.743 142.855 189.09H135.115C135.168 189.783 135.388 190.316 135.775 190.69C136.175 191.05 136.661 191.23 137.235 191.23C138.088 191.23 138.681 190.87 139.015 190.15H142.655C142.468 190.883 142.128 191.543 141.635 192.13C141.155 192.716 140.548 193.176 139.815 193.51C139.081 193.843 138.261 194.01 137.355 194.01C136.261 194.01 135.288 193.776 134.435 193.31C133.581 192.843 132.915 192.176 132.435 191.31C131.955 190.443 131.715 189.43 131.715 188.27C131.715 187.11 131.948 186.096 132.415 185.23C132.895 184.363 133.561 183.696 134.415 183.23C135.268 182.763 136.248 182.53 137.355 182.53C138.435 182.53 139.395 182.756 140.235 183.21C141.075 183.663 141.728 184.31 142.195 185.15C142.675 185.99 142.915 186.97 142.915 188.09ZM139.415 187.19C139.415 186.603 139.215 186.136 138.815 185.79C138.415 185.443 137.915 185.27 137.315 185.27C136.741 185.27 136.255 185.436 135.855 185.77C135.468 186.103 135.228 186.576 135.135 187.19H139.415Z" fill="white"/>
<ellipse cx="284.482" cy="146.906" rx="83.5177" ry="82.1134" fill="#111111"/>
<path d="M243.56 119.609C239.549 117.476 237.544 114.127 237.544 109.561C237.544 107.257 238.141 105.167 239.336 103.289C240.531 101.369 242.344 99.8546 244.776 98.7453C247.208 97.5933 250.195 97.0173 253.736 97.0173C257.277 97.0173 260.243 97.5933 262.632 98.7453C265.064 99.8546 266.877 101.369 268.072 103.289C269.267 105.167 269.864 107.257 269.864 109.561C269.864 111.865 269.309 113.871 268.2 115.577C267.133 117.284 265.683 118.628 263.848 119.609C266.152 120.719 267.923 122.255 269.16 124.217C270.397 126.137 271.016 128.399 271.016 131.001C271.016 134.031 270.248 136.655 268.712 138.873C267.176 141.049 265.085 142.713 262.44 143.865C259.837 145.017 256.936 145.593 253.736 145.593C250.536 145.593 247.613 145.017 244.968 143.865C242.365 142.713 240.296 141.049 238.76 138.873C237.224 136.655 236.456 134.031 236.456 131.001C236.456 128.356 237.075 126.073 238.312 124.153C239.549 122.191 241.299 120.676 243.56 119.609ZM259.24 111.225C259.24 109.476 258.728 108.132 257.704 107.193C256.723 106.212 255.4 105.721 253.736 105.721C252.072 105.721 250.728 106.212 249.704 107.193C248.723 108.175 248.232 109.54 248.232 111.289C248.232 112.953 248.744 114.276 249.768 115.257C250.792 116.196 252.115 116.665 253.736 116.665C255.357 116.665 256.68 116.175 257.704 115.193C258.728 114.212 259.24 112.889 259.24 111.225ZM253.736 124.345C251.731 124.345 250.109 124.9 248.872 126.009C247.635 127.076 247.016 128.569 247.016 130.489C247.016 132.281 247.613 133.753 248.808 134.905C250.045 136.057 251.688 136.633 253.736 136.633C255.784 136.633 257.384 136.057 258.536 134.905C259.731 133.753 260.328 132.281 260.328 130.489C260.328 128.612 259.709 127.119 258.472 126.009C257.277 124.9 255.699 124.345 253.736 124.345ZM309.636 107.513H289.668V116.345C290.521 115.407 291.716 114.639 293.252 114.041C294.788 113.444 296.452 113.145 298.244 113.145C301.444 113.145 304.089 113.871 306.18 115.321C308.313 116.772 309.871 118.649 310.852 120.953C311.833 123.257 312.324 125.753 312.324 128.441C312.324 133.433 310.916 137.401 308.1 140.345C305.284 143.247 301.316 144.697 296.196 144.697C292.783 144.697 289.817 144.121 287.3 142.969C284.783 141.775 282.841 140.132 281.476 138.041C280.111 135.951 279.364 133.54 279.236 130.809H289.924C290.18 132.132 290.799 133.241 291.78 134.137C292.761 134.991 294.105 135.417 295.812 135.417C297.817 135.417 299.311 134.777 300.292 133.497C301.273 132.217 301.764 130.511 301.764 128.377C301.764 126.287 301.252 124.687 300.228 123.577C299.204 122.468 297.711 121.913 295.748 121.913C294.297 121.913 293.103 122.276 292.164 123.001C291.225 123.684 290.607 124.601 290.308 125.753H279.748V97.9133H309.636V107.513ZM351.261 127.225H340.125V138.617H329.757V127.225H318.621V117.433H329.757V105.977H340.125V117.433H351.261V127.225Z" fill="#F2C203"/>
<path d="M235.99 166.19C235.444 166.19 234.937 166.056 234.47 165.79C234.017 165.523 233.657 165.163 233.39 164.71C233.124 164.243 232.99 163.736 232.99 163.19C232.99 162.63 233.124 162.123 233.39 161.67C233.657 161.203 234.017 160.836 234.47 160.57C234.937 160.303 235.444 160.17 235.99 160.17C236.55 160.17 237.057 160.303 237.51 160.57C237.977 160.836 238.344 161.203 238.61 161.67C238.877 162.123 239.01 162.63 239.01 163.19C239.01 163.736 238.877 164.243 238.61 164.71C238.344 165.163 237.977 165.523 237.51 165.79C237.057 166.056 236.55 166.19 235.99 166.19ZM262.94 160.33C262.94 161.143 262.753 161.89 262.38 162.57C262.007 163.236 261.433 163.776 260.66 164.19C259.887 164.603 258.927 164.81 257.78 164.81H255.66V169.85H252.24V155.81H257.78C258.9 155.81 259.847 156.003 260.62 156.39C261.393 156.776 261.973 157.31 262.36 157.99C262.747 158.67 262.94 159.45 262.94 160.33ZM257.52 162.09C258.173 162.09 258.66 161.936 258.98 161.63C259.3 161.323 259.46 160.89 259.46 160.33C259.46 159.77 259.3 159.336 258.98 159.03C258.66 158.723 258.173 158.57 257.52 158.57H255.66V162.09H257.52ZM267.94 160.55C268.34 159.936 268.84 159.456 269.44 159.11C270.04 158.75 270.707 158.57 271.44 158.57V162.19H270.5C269.647 162.19 269.007 162.376 268.58 162.75C268.154 163.11 267.94 163.75 267.94 164.67V169.85H264.52V158.69H267.94V160.55ZM277.955 170.01C276.862 170.01 275.875 169.776 274.995 169.31C274.128 168.843 273.442 168.176 272.935 167.31C272.442 166.443 272.195 165.43 272.195 164.27C272.195 163.123 272.448 162.116 272.955 161.25C273.462 160.37 274.155 159.696 275.035 159.23C275.915 158.763 276.902 158.53 277.995 158.53C279.088 158.53 280.075 158.763 280.955 159.23C281.835 159.696 282.528 160.37 283.035 161.25C283.542 162.116 283.795 163.123 283.795 164.27C283.795 165.416 283.535 166.43 283.015 167.31C282.508 168.176 281.808 168.843 280.915 169.31C280.035 169.776 279.048 170.01 277.955 170.01ZM277.955 167.05C278.608 167.05 279.162 166.81 279.615 166.33C280.082 165.85 280.315 165.163 280.315 164.27C280.315 163.376 280.088 162.69 279.635 162.21C279.195 161.73 278.648 161.49 277.995 161.49C277.328 161.49 276.775 161.73 276.335 162.21C275.895 162.676 275.675 163.363 275.675 164.27C275.675 165.163 275.888 165.85 276.315 166.33C276.755 166.81 277.302 167.05 277.955 167.05ZM287.11 157.53C286.51 157.53 286.016 157.356 285.63 157.01C285.256 156.65 285.07 156.21 285.07 155.69C285.07 155.156 285.256 154.716 285.63 154.37C286.016 154.01 286.51 153.83 287.11 153.83C287.696 153.83 288.176 154.01 288.55 154.37C288.936 154.716 289.13 155.156 289.13 155.69C289.13 156.21 288.936 156.65 288.55 157.01C288.176 157.356 287.696 157.53 287.11 157.53ZM288.83 171.29C288.83 172.663 288.483 173.65 287.79 174.25C287.096 174.863 286.13 175.17 284.89 175.17H283.55V172.27H284.37C284.743 172.27 285.01 172.196 285.17 172.05C285.33 171.903 285.41 171.663 285.41 171.33V158.69H288.83V171.29ZM301.608 164.09C301.608 164.41 301.588 164.743 301.548 165.09H293.808C293.862 165.783 294.082 166.316 294.468 166.69C294.868 167.05 295.355 167.23 295.928 167.23C296.782 167.23 297.375 166.87 297.708 166.15H301.348C301.162 166.883 300.822 167.543 300.328 168.13C299.848 168.716 299.242 169.176 298.508 169.51C297.775 169.843 296.955 170.01 296.048 170.01C294.955 170.01 293.982 169.776 293.128 169.31C292.275 168.843 291.608 168.176 291.128 167.31C290.648 166.443 290.408 165.43 290.408 164.27C290.408 163.11 290.642 162.096 291.108 161.23C291.588 160.363 292.255 159.696 293.108 159.23C293.962 158.763 294.942 158.53 296.048 158.53C297.128 158.53 298.088 158.756 298.928 159.21C299.768 159.663 300.422 160.31 300.888 161.15C301.368 161.99 301.608 162.97 301.608 164.09ZM298.108 163.19C298.108 162.603 297.908 162.136 297.508 161.79C297.108 161.443 296.608 161.27 296.008 161.27C295.435 161.27 294.948 161.436 294.548 161.77C294.162 162.103 293.922 162.576 293.828 163.19H298.108ZM302.533 164.27C302.533 163.11 302.766 162.096 303.233 161.23C303.713 160.363 304.373 159.696 305.213 159.23C306.066 158.763 307.039 158.53 308.133 158.53C309.533 158.53 310.699 158.896 311.633 159.63C312.579 160.363 313.199 161.396 313.493 162.73H309.853C309.546 161.876 308.953 161.45 308.073 161.45C307.446 161.45 306.946 161.696 306.573 162.19C306.199 162.67 306.013 163.363 306.013 164.27C306.013 165.176 306.199 165.876 306.573 166.37C306.946 166.85 307.446 167.09 308.073 167.09C308.953 167.09 309.546 166.663 309.853 165.81H313.493C313.199 167.116 312.579 168.143 311.633 168.89C310.686 169.636 309.519 170.01 308.133 170.01C307.039 170.01 306.066 169.776 305.213 169.31C304.373 168.843 303.713 168.176 303.233 167.31C302.766 166.443 302.533 165.43 302.533 164.27ZM321.342 166.95V169.85H319.602C318.362 169.85 317.395 169.55 316.702 168.95C316.009 168.336 315.662 167.343 315.662 165.97V161.53H314.302V158.69H315.662V155.97H319.082V158.69H321.322V161.53H319.082V166.01C319.082 166.343 319.162 166.583 319.322 166.73C319.482 166.876 319.749 166.95 320.122 166.95H321.342ZM243.495 179.81V182.55H237.775V185.51H242.055V188.17H237.775V193.85H234.355V179.81H243.495ZM248.512 184.55C248.912 183.936 249.412 183.456 250.012 183.11C250.612 182.75 251.279 182.57 252.012 182.57V186.19H251.072C250.219 186.19 249.579 186.376 249.152 186.75C248.726 187.11 248.512 187.75 248.512 188.67V193.85H245.092V182.69H248.512V184.55ZM263.967 188.09C263.967 188.41 263.947 188.743 263.907 189.09H256.167C256.22 189.783 256.44 190.316 256.827 190.69C257.227 191.05 257.714 191.23 258.287 191.23C259.14 191.23 259.734 190.87 260.067 190.15H263.707C263.52 190.883 263.18 191.543 262.687 192.13C262.207 192.716 261.6 193.176 260.867 193.51C260.134 193.843 259.314 194.01 258.407 194.01C257.314 194.01 256.34 193.776 255.487 193.31C254.634 192.843 253.967 192.176 253.487 191.31C253.007 190.443 252.767 189.43 252.767 188.27C252.767 187.11 253 186.096 253.467 185.23C253.947 184.363 254.614 183.696 255.467 183.23C256.32 182.763 257.3 182.53 258.407 182.53C259.487 182.53 260.447 182.756 261.287 183.21C262.127 183.663 262.78 184.31 263.247 185.15C263.727 185.99 263.967 186.97 263.967 188.09ZM260.467 187.19C260.467 186.603 260.267 186.136 259.867 185.79C259.467 185.443 258.967 185.27 258.367 185.27C257.794 185.27 257.307 185.436 256.907 185.77C256.52 186.103 256.28 186.576 256.187 187.19H260.467ZM276.091 188.09C276.091 188.41 276.071 188.743 276.031 189.09H268.291C268.345 189.783 268.565 190.316 268.951 190.69C269.351 191.05 269.838 191.23 270.411 191.23C271.265 191.23 271.858 190.87 272.191 190.15H275.831C275.645 190.883 275.305 191.543 274.811 192.13C274.331 192.716 273.725 193.176 272.991 193.51C272.258 193.843 271.438 194.01 270.531 194.01C269.438 194.01 268.465 193.776 267.611 193.31C266.758 192.843 266.091 192.176 265.611 191.31C265.131 190.443 264.891 189.43 264.891 188.27C264.891 187.11 265.125 186.096 265.591 185.23C266.071 184.363 266.738 183.696 267.591 183.23C268.445 182.763 269.425 182.53 270.531 182.53C271.611 182.53 272.571 182.756 273.411 183.21C274.251 183.663 274.905 184.31 275.371 185.15C275.851 185.99 276.091 186.97 276.091 188.09ZM272.591 187.19C272.591 186.603 272.391 186.136 271.991 185.79C271.591 185.443 271.091 185.27 270.491 185.27C269.918 185.27 269.431 185.436 269.031 185.77C268.645 186.103 268.405 186.576 268.311 187.19H272.591ZM281.115 179.05V193.85H277.695V179.05H281.115ZM282.714 188.25C282.714 187.103 282.927 186.096 283.354 185.23C283.794 184.363 284.387 183.696 285.134 183.23C285.881 182.763 286.714 182.53 287.634 182.53C288.421 182.53 289.107 182.69 289.694 183.01C290.294 183.33 290.754 183.75 291.074 184.27V182.69H294.494V193.85H291.074V192.27C290.741 192.79 290.274 193.21 289.674 193.53C289.087 193.85 288.401 194.01 287.614 194.01C286.707 194.01 285.881 193.776 285.134 193.31C284.387 192.83 283.794 192.156 283.354 191.29C282.927 190.41 282.714 189.396 282.714 188.25ZM291.074 188.27C291.074 187.416 290.834 186.743 290.354 186.25C289.887 185.756 289.314 185.51 288.634 185.51C287.954 185.51 287.374 185.756 286.894 186.25C286.427 186.73 286.194 187.396 286.194 188.25C286.194 189.103 286.427 189.783 286.894 190.29C287.374 190.783 287.954 191.03 288.634 191.03C289.314 191.03 289.887 190.783 290.354 190.29C290.834 189.796 291.074 189.123 291.074 188.27ZM303.568 182.57C304.875 182.57 305.915 182.996 306.688 183.85C307.475 184.69 307.868 185.85 307.868 187.33V193.85H304.468V187.79C304.468 187.043 304.275 186.463 303.888 186.05C303.501 185.636 302.981 185.43 302.328 185.43C301.675 185.43 301.155 185.636 300.768 186.05C300.381 186.463 300.188 187.043 300.188 187.79V193.85H296.768V182.69H300.188V184.17C300.535 183.676 301.001 183.29 301.588 183.01C302.175 182.716 302.835 182.57 303.568 182.57ZM309.365 188.27C309.365 187.11 309.598 186.096 310.065 185.23C310.545 184.363 311.205 183.696 312.045 183.23C312.898 182.763 313.871 182.53 314.965 182.53C316.365 182.53 317.531 182.896 318.465 183.63C319.411 184.363 320.031 185.396 320.325 186.73H316.685C316.378 185.876 315.785 185.45 314.905 185.45C314.278 185.45 313.778 185.696 313.405 186.19C313.031 186.67 312.845 187.363 312.845 188.27C312.845 189.176 313.031 189.876 313.405 190.37C313.778 190.85 314.278 191.09 314.905 191.09C315.785 191.09 316.378 190.663 316.685 189.81H320.325C320.031 191.116 319.411 192.143 318.465 192.89C317.518 193.636 316.351 194.01 314.965 194.01C313.871 194.01 312.898 193.776 312.045 193.31C311.205 192.843 310.545 192.176 310.065 191.31C309.598 190.443 309.365 189.43 309.365 188.27ZM332.474 188.09C332.474 188.41 332.454 188.743 332.414 189.09H324.674C324.727 189.783 324.947 190.316 325.334 190.69C325.734 191.05 326.221 191.23 326.794 191.23C327.647 191.23 328.241 190.87 328.574 190.15H332.214C332.027 190.883 331.687 191.543 331.194 192.13C330.714 192.716 330.107 193.176 329.374 193.51C328.641 193.843 327.821 194.01 326.914 194.01C325.821 194.01 324.847 193.776 323.994 193.31C323.141 192.843 322.474 192.176 321.994 191.31C321.514 190.443 321.274 189.43 321.274 188.27C321.274 187.11 321.507 186.096 321.974 185.23C322.454 184.363 323.121 183.696 323.974 183.23C324.827 182.763 325.807 182.53 326.914 182.53C327.994 182.53 328.954 182.756 329.794 183.21C330.634 183.663 331.287 184.31 331.754 185.15C332.234 185.99 332.474 186.97 332.474 188.09ZM328.974 187.19C328.974 186.603 328.774 186.136 328.374 185.79C327.974 185.443 327.474 185.27 326.874 185.27C326.301 185.27 325.814 185.436 325.414 185.77C325.027 186.103 324.787 186.576 324.694 187.19H328.974Z" fill="white"/>
<ellipse cx="185.305" cy="316.906" rx="83.5177" ry="82.1134" fill="#111111"/>
<path d="M133.56 288.949C129.549 286.816 127.544 283.466 127.544 278.901C127.544 276.597 128.141 274.506 129.336 272.629C130.531 270.709 132.344 269.194 134.776 268.085C137.208 266.933 140.195 266.357 143.736 266.357C147.277 266.357 150.243 266.933 152.632 268.085C155.064 269.194 156.877 270.709 158.072 272.629C159.267 274.506 159.864 276.597 159.864 278.901C159.864 281.205 159.309 283.21 158.2 284.917C157.133 286.624 155.683 287.968 153.848 288.949C156.152 290.058 157.923 291.594 159.16 293.557C160.397 295.477 161.016 297.738 161.016 300.341C161.016 303.37 160.248 305.994 158.712 308.213C157.176 310.389 155.085 312.053 152.44 313.205C149.837 314.357 146.936 314.933 143.736 314.933C140.536 314.933 137.613 314.357 134.968 313.205C132.365 312.053 130.296 310.389 128.76 308.213C127.224 305.994 126.456 303.37 126.456 300.341C126.456 297.696 127.075 295.413 128.312 293.493C129.549 291.53 131.299 290.016 133.56 288.949ZM149.24 280.565C149.24 278.816 148.728 277.472 147.704 276.533C146.723 275.552 145.4 275.061 143.736 275.061C142.072 275.061 140.728 275.552 139.704 276.533C138.723 277.514 138.232 278.88 138.232 280.629C138.232 282.293 138.744 283.616 139.768 284.597C140.792 285.536 142.115 286.005 143.736 286.005C145.357 286.005 146.68 285.514 147.704 284.533C148.728 283.552 149.24 282.229 149.24 280.565ZM143.736 293.685C141.731 293.685 140.109 294.24 138.872 295.349C137.635 296.416 137.016 297.909 137.016 299.829C137.016 301.621 137.613 303.093 138.808 304.245C140.045 305.397 141.688 305.973 143.736 305.973C145.784 305.973 147.384 305.397 148.536 304.245C149.731 303.093 150.328 301.621 150.328 299.829C150.328 297.952 149.709 296.458 148.472 295.349C147.277 294.24 145.699 293.685 143.736 293.685ZM166.74 290.037C166.74 282.698 168.148 276.917 170.964 272.693C173.823 268.469 178.409 266.357 184.724 266.357C191.039 266.357 195.604 268.469 198.42 272.693C201.279 276.917 202.708 282.698 202.708 290.037C202.708 297.461 201.279 303.285 198.42 307.509C195.604 311.733 191.039 313.845 184.724 313.845C178.409 313.845 173.823 311.733 170.964 307.509C168.148 303.285 166.74 297.461 166.74 290.037ZM191.956 290.037C191.956 285.728 191.487 282.421 190.548 280.117C189.609 277.77 187.668 276.597 184.724 276.597C181.78 276.597 179.839 277.77 178.9 280.117C177.961 282.421 177.492 285.728 177.492 290.037C177.492 292.938 177.663 295.349 178.004 297.269C178.345 299.146 179.028 300.682 180.052 301.877C181.119 303.029 182.676 303.605 184.724 303.605C186.772 303.605 188.308 303.029 189.332 301.877C190.399 300.682 191.103 299.146 191.444 297.269C191.785 295.349 191.956 292.938 191.956 290.037ZM206.954 279.093C206.954 275.637 207.935 272.97 209.898 271.093C211.903 269.216 214.485 268.277 217.642 268.277C220.799 268.277 223.359 269.216 225.322 271.093C227.285 272.97 228.266 275.637 228.266 279.093C228.266 282.549 227.285 285.216 225.322 287.093C223.359 288.97 220.799 289.909 217.642 289.909C214.485 289.909 211.903 288.97 209.898 287.093C207.935 285.216 206.954 282.549 206.954 279.093ZM250.41 268.981L225.77 314.037H215.21L239.85 268.981H250.41ZM217.578 274.677C215.53 274.677 214.506 276.149 214.506 279.093C214.506 281.994 215.53 283.445 217.578 283.445C218.559 283.445 219.327 283.082 219.882 282.357C220.437 281.632 220.714 280.544 220.714 279.093C220.714 276.149 219.669 274.677 217.578 274.677ZM237.418 303.925C237.418 300.469 238.399 297.802 240.362 295.925C242.325 294.048 244.885 293.109 248.042 293.109C251.199 293.109 253.759 294.048 255.722 295.925C257.685 297.802 258.666 300.469 258.666 303.925C258.666 307.381 257.685 310.048 255.722 311.925C253.759 313.802 251.199 314.741 248.042 314.741C244.885 314.741 242.325 313.802 240.362 311.925C238.399 310.048 237.418 307.381 237.418 303.925ZM247.978 299.509C246.997 299.509 246.229 299.872 245.674 300.597C245.162 301.322 244.906 302.432 244.906 303.925C244.906 306.826 245.93 308.277 247.978 308.277C248.959 308.277 249.727 307.914 250.282 307.189C250.837 306.464 251.114 305.376 251.114 303.925C251.114 302.474 250.837 301.386 250.282 300.661C249.727 299.893 248.959 299.509 247.978 299.509Z" fill="#F2C203"/>
<path d="M135.99 336.502C135.444 336.502 134.937 336.369 134.47 336.102C134.017 335.835 133.657 335.475 133.39 335.022C133.124 334.555 132.99 334.049 132.99 333.502C132.99 332.942 133.124 332.435 133.39 331.982C133.657 331.515 134.017 331.149 134.47 330.882C134.937 330.615 135.444 330.482 135.99 330.482C136.55 330.482 137.057 330.615 137.51 330.882C137.977 331.149 138.344 331.515 138.61 331.982C138.877 332.435 139.01 332.942 139.01 333.502C139.01 334.049 138.877 334.555 138.61 335.022C138.344 335.475 137.977 335.835 137.51 336.102C137.057 336.369 136.55 336.502 135.99 336.502ZM157.5 326.122C158.98 326.122 160.273 326.415 161.38 327.002C162.487 327.589 163.34 328.415 163.94 329.482C164.553 330.535 164.86 331.755 164.86 333.142C164.86 334.515 164.553 335.735 163.94 336.802C163.34 337.869 162.48 338.695 161.36 339.282C160.253 339.869 158.967 340.162 157.5 340.162H152.24V326.122H157.5ZM157.28 337.202C158.573 337.202 159.58 336.849 160.3 336.142C161.02 335.435 161.38 334.435 161.38 333.142C161.38 331.849 161.02 330.842 160.3 330.122C159.58 329.402 158.573 329.042 157.28 329.042H155.66V337.202H157.28ZM177.091 334.402C177.091 334.722 177.071 335.055 177.031 335.402H169.291C169.345 336.095 169.565 336.629 169.951 337.002C170.351 337.362 170.838 337.542 171.411 337.542C172.265 337.542 172.858 337.182 173.191 336.462H176.831C176.645 337.195 176.305 337.855 175.811 338.442C175.331 339.029 174.725 339.489 173.991 339.822C173.258 340.155 172.438 340.322 171.531 340.322C170.438 340.322 169.465 340.089 168.611 339.622C167.758 339.155 167.091 338.489 166.611 337.622C166.131 336.755 165.891 335.742 165.891 334.582C165.891 333.422 166.125 332.409 166.591 331.542C167.071 330.675 167.738 330.009 168.591 329.542C169.445 329.075 170.425 328.842 171.531 328.842C172.611 328.842 173.571 329.069 174.411 329.522C175.251 329.975 175.905 330.622 176.371 331.462C176.851 332.302 177.091 333.282 177.091 334.402ZM173.591 333.502C173.591 332.915 173.391 332.449 172.991 332.102C172.591 331.755 172.091 331.582 171.491 331.582C170.918 331.582 170.431 331.749 170.031 332.082C169.645 332.415 169.405 332.889 169.311 333.502H173.591ZM182.054 334.582C182.054 333.422 182.287 332.409 182.754 331.542C183.234 330.675 183.894 330.009 184.734 329.542C185.587 329.075 186.56 328.842 187.654 328.842C189.054 328.842 190.22 329.209 191.154 329.942C192.1 330.675 192.72 331.709 193.014 333.042H189.374C189.067 332.189 188.474 331.762 187.594 331.762C186.967 331.762 186.467 332.009 186.094 332.502C185.72 332.982 185.534 333.675 185.534 334.582C185.534 335.489 185.72 336.189 186.094 336.682C186.467 337.162 186.967 337.402 187.594 337.402C188.474 337.402 189.067 336.975 189.374 336.122H193.014C192.72 337.429 192.1 338.455 191.154 339.202C190.207 339.949 189.04 340.322 187.654 340.322C186.56 340.322 185.587 340.089 184.734 339.622C183.894 339.155 183.234 338.489 182.754 337.622C182.287 336.755 182.054 335.742 182.054 334.582ZM198.063 325.362V340.162H194.643V325.362H198.063ZM202.062 327.842C201.462 327.842 200.968 327.669 200.582 327.322C200.208 326.962 200.022 326.522 200.022 326.002C200.022 325.469 200.208 325.029 200.582 324.682C200.968 324.322 201.462 324.142 202.062 324.142C202.648 324.142 203.128 324.322 203.502 324.682C203.888 325.029 204.082 325.469 204.082 326.002C204.082 326.522 203.888 326.962 203.502 327.322C203.128 327.669 202.648 327.842 202.062 327.842ZM203.762 329.002V340.162H200.342V329.002H203.762ZM216.56 334.402C216.56 334.722 216.54 335.055 216.5 335.402H208.76C208.813 336.095 209.033 336.629 209.42 337.002C209.82 337.362 210.307 337.542 210.88 337.542C211.733 337.542 212.327 337.182 212.66 336.462H216.3C216.113 337.195 215.773 337.855 215.28 338.442C214.8 339.029 214.193 339.489 213.46 339.822C212.727 340.155 211.907 340.322 211 340.322C209.907 340.322 208.933 340.089 208.08 339.622C207.227 339.155 206.56 338.489 206.08 337.622C205.6 336.755 205.36 335.742 205.36 334.582C205.36 333.422 205.593 332.409 206.06 331.542C206.54 330.675 207.207 330.009 208.06 329.542C208.913 329.075 209.893 328.842 211 328.842C212.08 328.842 213.04 329.069 213.88 329.522C214.72 329.975 215.373 330.622 215.84 331.462C216.32 332.302 216.56 333.282 216.56 334.402ZM213.06 333.502C213.06 332.915 212.86 332.449 212.46 332.102C212.06 331.755 211.56 331.582 210.96 331.582C210.387 331.582 209.9 331.749 209.5 332.082C209.113 332.415 208.873 332.889 208.78 333.502H213.06ZM224.964 328.882C226.271 328.882 227.311 329.309 228.084 330.162C228.871 331.002 229.264 332.162 229.264 333.642V340.162H225.864V334.102C225.864 333.355 225.671 332.775 225.284 332.362C224.898 331.949 224.378 331.742 223.724 331.742C223.071 331.742 222.551 331.949 222.164 332.362C221.778 332.775 221.584 333.355 221.584 334.102V340.162H218.164V329.002H221.584V330.482C221.931 329.989 222.398 329.602 222.984 329.322C223.571 329.029 224.231 328.882 224.964 328.882ZM237.661 337.262V340.162H235.921C234.681 340.162 233.714 339.862 233.021 339.262C232.327 338.649 231.981 337.655 231.981 336.282V331.842H230.621V329.002H231.981V326.282H235.401V329.002H237.641V331.842H235.401V336.322C235.401 336.655 235.481 336.895 235.641 337.042C235.801 337.189 236.067 337.262 236.441 337.262H237.661ZM139.435 364.302C138.408 364.302 137.488 364.135 136.675 363.802C135.862 363.469 135.208 362.975 134.715 362.322C134.235 361.669 133.982 360.882 133.955 359.962H137.595C137.648 360.482 137.828 360.882 138.135 361.162C138.442 361.429 138.842 361.562 139.335 361.562C139.842 361.562 140.242 361.449 140.535 361.222C140.828 360.982 140.975 360.655 140.975 360.242C140.975 359.895 140.855 359.609 140.615 359.382C140.388 359.155 140.102 358.969 139.755 358.822C139.422 358.675 138.942 358.509 138.315 358.322C137.408 358.042 136.668 357.762 136.095 357.482C135.522 357.202 135.028 356.789 134.615 356.242C134.202 355.695 133.995 354.982 133.995 354.102C133.995 352.795 134.468 351.775 135.415 351.042C136.362 350.295 137.595 349.922 139.115 349.922C140.662 349.922 141.908 350.295 142.855 351.042C143.802 351.775 144.308 352.802 144.375 354.122H140.675C140.648 353.669 140.482 353.315 140.175 353.062C139.868 352.795 139.475 352.662 138.995 352.662C138.582 352.662 138.248 352.775 137.995 353.002C137.742 353.215 137.615 353.529 137.615 353.942C137.615 354.395 137.828 354.749 138.255 355.002C138.682 355.255 139.348 355.529 140.255 355.822C141.162 356.129 141.895 356.422 142.455 356.702C143.028 356.982 143.522 357.389 143.935 357.922C144.348 358.455 144.555 359.142 144.555 359.982C144.555 360.782 144.348 361.509 143.935 362.162C143.535 362.815 142.948 363.335 142.175 363.722C141.402 364.109 140.488 364.302 139.435 364.302ZM145.78 358.562C145.78 357.415 145.993 356.409 146.42 355.542C146.86 354.675 147.453 354.009 148.2 353.542C148.946 353.075 149.78 352.842 150.7 352.842C151.486 352.842 152.173 353.002 152.76 353.322C153.36 353.642 153.82 354.062 154.14 354.582V353.002H157.56V364.162H154.14V362.582C153.806 363.102 153.34 363.522 152.74 363.842C152.153 364.162 151.466 364.322 150.68 364.322C149.773 364.322 148.946 364.089 148.2 363.622C147.453 363.142 146.86 362.469 146.42 361.602C145.993 360.722 145.78 359.709 145.78 358.562ZM154.14 358.582C154.14 357.729 153.9 357.055 153.42 356.562C152.953 356.069 152.38 355.822 151.7 355.822C151.02 355.822 150.44 356.069 149.96 356.562C149.493 357.042 149.26 357.709 149.26 358.562C149.26 359.415 149.493 360.095 149.96 360.602C150.44 361.095 151.02 361.342 151.7 361.342C152.38 361.342 152.953 361.095 153.42 360.602C153.9 360.109 154.14 359.435 154.14 358.582ZM166.054 361.262V364.162H164.314C163.074 364.162 162.107 363.862 161.414 363.262C160.72 362.649 160.374 361.655 160.374 360.282V355.842H159.014V353.002H160.374V350.282H163.794V353.002H166.034V355.842H163.794V360.322C163.794 360.655 163.874 360.895 164.034 361.042C164.194 361.189 164.46 361.262 164.834 361.262H166.054ZM169.479 351.842C168.879 351.842 168.385 351.669 167.999 351.322C167.625 350.962 167.439 350.522 167.439 350.002C167.439 349.469 167.625 349.029 167.999 348.682C168.385 348.322 168.879 348.142 169.479 348.142C170.065 348.142 170.545 348.322 170.919 348.682C171.305 349.029 171.499 349.469 171.499 350.002C171.499 350.522 171.305 350.962 170.919 351.322C170.545 351.669 170.065 351.842 169.479 351.842ZM171.179 353.002V364.162H167.759V353.002H171.179ZM177.997 364.322C177.024 364.322 176.157 364.155 175.397 363.822C174.637 363.489 174.037 363.035 173.597 362.462C173.157 361.875 172.911 361.222 172.857 360.502H176.237C176.277 360.889 176.457 361.202 176.777 361.442C177.097 361.682 177.491 361.802 177.957 361.802C178.384 361.802 178.711 361.722 178.937 361.562C179.177 361.389 179.297 361.169 179.297 360.902C179.297 360.582 179.131 360.349 178.797 360.202C178.464 360.042 177.924 359.869 177.177 359.682C176.377 359.495 175.711 359.302 175.177 359.102C174.644 358.889 174.184 358.562 173.797 358.122C173.411 357.669 173.217 357.062 173.217 356.302C173.217 355.662 173.391 355.082 173.737 354.562C174.097 354.029 174.617 353.609 175.297 353.302C175.991 352.995 176.811 352.842 177.757 352.842C179.157 352.842 180.257 353.189 181.057 353.882C181.871 354.575 182.337 355.495 182.457 356.642H179.297C179.244 356.255 179.071 355.949 178.777 355.722C178.497 355.495 178.124 355.382 177.657 355.382C177.257 355.382 176.951 355.462 176.737 355.622C176.524 355.769 176.417 355.975 176.417 356.242C176.417 356.562 176.584 356.802 176.917 356.962C177.264 357.122 177.797 357.282 178.517 357.442C179.344 357.655 180.017 357.869 180.537 358.082C181.057 358.282 181.511 358.615 181.897 359.082C182.297 359.535 182.504 360.149 182.517 360.922C182.517 361.575 182.331 362.162 181.957 362.682C181.597 363.189 181.071 363.589 180.377 363.882C179.697 364.175 178.904 364.322 177.997 364.322ZM190.01 355.842H188.17V364.162H184.75V355.842H183.51V353.002H184.75V352.682C184.75 351.309 185.143 350.269 185.93 349.562C186.716 348.842 187.87 348.482 189.39 348.482C189.643 348.482 189.83 348.489 189.95 348.502V351.402C189.296 351.362 188.836 351.455 188.57 351.682C188.303 351.909 188.17 352.315 188.17 352.902V353.002H190.01V355.842ZM190.737 358.562C190.737 357.415 190.95 356.409 191.377 355.542C191.817 354.675 192.41 354.009 193.157 353.542C193.903 353.075 194.737 352.842 195.657 352.842C196.443 352.842 197.13 353.002 197.717 353.322C198.317 353.642 198.777 354.062 199.097 354.582V353.002H202.517V364.162H199.097V362.582C198.763 363.102 198.297 363.522 197.697 363.842C197.11 364.162 196.423 364.322 195.637 364.322C194.73 364.322 193.903 364.089 193.157 363.622C192.41 363.142 191.817 362.469 191.377 361.602C190.95 360.722 190.737 359.709 190.737 358.562ZM199.097 358.582C199.097 357.729 198.857 357.055 198.377 356.562C197.91 356.069 197.337 355.822 196.657 355.822C195.977 355.822 195.397 356.069 194.917 356.562C194.45 357.042 194.217 357.709 194.217 358.562C194.217 359.415 194.45 360.095 194.917 360.602C195.397 361.095 195.977 361.342 196.657 361.342C197.337 361.342 197.91 361.095 198.377 360.602C198.857 360.109 199.097 359.435 199.097 358.582ZM206.511 351.842C205.911 351.842 205.417 351.669 205.031 351.322C204.657 350.962 204.471 350.522 204.471 350.002C204.471 349.469 204.657 349.029 205.031 348.682C205.417 348.322 205.911 348.142 206.511 348.142C207.097 348.142 207.577 348.322 207.951 348.682C208.337 349.029 208.531 349.469 208.531 350.002C208.531 350.522 208.337 350.962 207.951 351.322C207.577 351.669 207.097 351.842 206.511 351.842ZM208.211 353.002V364.162H204.791V353.002H208.211ZM216.709 361.262V364.162H214.969C213.729 364.162 212.763 363.862 212.069 363.262C211.376 362.649 211.029 361.655 211.029 360.282V355.842H209.669V353.002H211.029V350.282H214.449V353.002H216.689V355.842H214.449V360.322C214.449 360.655 214.529 360.895 214.689 361.042C214.849 361.189 215.116 361.262 215.489 361.262H216.709Z" fill="white"/>
<ellipse cx="175" cy="85.1567" rx="53" ry="85.1567" fill="#D9D9D9" fill-opacity="0.12"/>
<ellipse cx="53.1511" cy="25.3144" rx="53.1511" ry="25.3144" transform="matrix(0.985597 0.169112 -0.17477 0.984609 136.735 199.51)" fill="#D9D9D9" fill-opacity="0.15"/>
</svg>
